<?xml version="1.0" encoding="UTF-8"?><svg xmlns="http://www.w3.org/2000/svg" viewBox="0 0 30.56 21.42"><defs><style>.e{fill:#fff;}</style></defs><g id="a"/><g id="b"><g id="c"><g id="d"><path class="e" d="M14.89,0c2.71,.08,5.42,.13,8.13,.24,1.25,.05,2.5,.17,3.74,.36,1.81,.28,2.95,1.46,3.3,3.26,.27,1.36,.39,2.74,.44,4.12,.05,1.43,.06,2.87,.04,4.3-.03,1.63-.13,3.25-.4,4.86-.12,.74-.28,1.47-.72,2.1-.67,.96-1.59,1.52-2.74,1.65-1.31,.15-2.63,.27-3.95,.34-3.45,.19-6.9,.21-10.35,.15-1.79-.03-3.59-.1-5.38-.2-1.06-.06-2.13-.16-3.18-.33-1.76-.27-2.93-1.44-3.28-3.19-.24-1.18-.35-2.37-.42-3.56C.01,12.43-.04,10.76,.03,9.09c.07-1.77,.15-3.54,.5-5.28C.86,2.19,1.8,1.09,3.41,.67c.73-.19,1.5-.25,2.26-.31,3.07-.25,6.15-.29,9.23-.36Zm5.32,10.73l-7.96-4.58V15.31l7.96-4.58Z"/></g></g></g></svg>