<svg xmlns="http://www.w3.org/2000/svg" viewBox="0 0 1410.75 378.74"><defs><style>.cls-1,.cls-2{fill:#fff;}.cls-2{font-size:125.06px;font-family:Calibri-Bold, Calibri;font-weight:700;}.cls-3{letter-spacing:-0.02em;}</style></defs><g id="Layer_2" data-name="Layer 2"><g id="Layer_2-2" data-name="Layer 2"><path class="cls-1" d="M331,92.09V276.26L269.57,240.8V131a6,6,0,0,0-3-5.2L171.5,70.93V0Z"/><path class="cls-1" d="M159.5,0V70.93L64.43,125.82a6,6,0,0,0-3,5.2V240.8L0,276.26V92.09Z"/><path class="cls-1" d="M325,286.65,165.5,378.74,6,286.65l61.42-35.46h0l95.07,54.89a6,6,0,0,0,6,0l95.07-54.89h0Z"/><polygon class="cls-1" points="159.5 191.11 159.5 290.49 79.43 244.26 73.43 240.8 73.43 141.42 153.49 187.64 153.5 187.64 159.5 191.11"/><polygon class="cls-1" points="257.57 141.42 257.57 240.8 251.57 244.26 171.5 290.49 171.5 191.11 171.51 191.11 177.49 187.64 177.51 187.64 257.57 141.42"/><polygon class="cls-1" points="251.57 131.02 171.5 177.24 171.5 177.25 165.5 180.71 159.5 177.25 159.5 177.24 79.43 131.02 159.5 84.79 165.5 81.33 171.5 84.79 251.57 131.02"/><text class="cls-2" transform="translate(362.19 230.21)">3D MODELING C<tspan class="cls-3" x="846.98" y="0">L</tspan><tspan x="896.81" y="0">UB</tspan></text></g></g></svg>