<?xml version="1.0" encoding="UTF-8"?><svg xmlns="http://www.w3.org/2000/svg" viewBox="0 0 24.9 21.96"><defs><style>.e{fill:#fff;}</style></defs><g id="a"/><g id="b"><g id="c"><g id="d"><g><path class="e" d="M0,16.93c5.08,0,10.15,0,15.23,0,.1,0,.25,.07,.3,.15,.91,1.55,1.81,3.12,2.71,4.68,.03,.06,.04,.13,.06,.2H4.11s-.06-.03-.1-.04c-.85-.13-1.47-.59-1.89-1.33-.65-1.14-1.31-2.27-1.97-3.4-.04-.07-.1-.14-.16-.21v-.05Z"/><path class="e" d="M9.79,0C10.77,0,11.7,0,12.63,0c.61,0,1.23-.02,1.84,.04,.79,.08,1.41,.5,1.81,1.19,.97,1.67,1.92,3.34,2.88,5.01,1.79,3.13,3.58,6.27,5.38,9.4,.49,.84,.49,1.69,.03,2.52-.68,1.22-1.39,2.42-2.09,3.63-.02,.03-.04,.06-.08,.11L9.79,0Z"/><path class="e" d="M2.06,13.34L7.72,3.56l5.65,9.78H2.06Z"/></g></g></g></g></svg>