<?xml version="1.0" encoding="UTF-8"?><svg xmlns="http://www.w3.org/2000/svg" viewBox="0 0 21.78 21.81"><defs><style>.e{fill:#fff;}</style></defs><g id="a"/><g id="b"><g id="c"><g id="d"><g><path class="e" d="M9.35,0c1.5,0,3.01,0,4.51,0,.19,.02,.38,.03,.57,.05,.79,.07,1.59,.06,2.36,.21,2.36,.46,3.91,1.85,4.59,4.17,.28,.95,.3,1.92,.33,2.89,.05,1.68,.09,3.36,.07,5.04-.02,1.43-.02,2.87-.21,4.28-.38,2.76-2.36,4.63-5.21,4.95-1.46,.17-2.95,.19-4.43,.2-1.88,.02-3.75-.02-5.63-.06-1.06-.02-2.09-.23-3.04-.73-1.12-.59-1.96-1.46-2.51-2.61C.19,17.23,.07,15.97,.04,14.73-.03,12.14,.01,9.56,.02,6.97c0-.88,.08-1.77,.35-2.61C1.16,1.94,2.86,.58,5.35,.26c1.22-.16,2.47-.13,3.7-.2,.1,0,.2-.04,.3-.07Zm1,19.86c1.39-.04,2.83-.07,4.26-.13,.64-.03,1.28-.06,1.9-.17,1.49-.28,2.53-1.12,2.94-2.6,.18-.67,.28-1.37,.29-2.07,.03-2.04,0-4.07-.03-6.11-.01-1.04-.03-2.09-.14-3.13-.21-1.94-1.42-3.19-3.35-3.45-.94-.13-1.9-.16-2.85-.16-2.04,0-4.07,.03-6.11,.07-.64,.01-1.28,.07-1.91,.16-1.65,.24-2.85,1.35-3.13,2.99-.16,.93-.23,1.89-.23,2.83,0,2.62,.04,5.23,.1,7.85,.02,.75,.29,1.45,.72,2.07,.77,1.11,1.86,1.65,3.18,1.71,1.43,.07,2.86,.09,4.34,.14Z"/><path class="e" d="M10.86,16.53c-3.15,0-5.44-2.57-5.58-5.26-.19-3.46,2.64-6.02,5.71-5.97,3.03,.05,5.56,2.63,5.52,5.67-.04,3.08-2.59,5.58-5.65,5.55Zm3.62-5.6c.06-1.83-1.46-3.6-3.56-3.61-2-.01-3.64,1.61-3.64,3.58,0,1.98,1.6,3.58,3.53,3.63,2.08,.05,3.75-1.74,3.67-3.59Z"/><path class="e" d="M15.32,5.12c0-.73,.57-1.32,1.29-1.34,.74-.02,1.33,.57,1.34,1.32,0,.74-.57,1.36-1.32,1.34-.79-.02-1.32-.64-1.32-1.32Z"/></g></g></g></g></svg>