<?xml version="1.0" encoding="utf-8"?>
<!-- Generator: Adobe Illustrator 26.1.0, SVG Export Plug-In . SVG Version: 6.00 Build 0)  -->
<svg version="1.1" id="Layer_1" xmlns="http://www.w3.org/2000/svg" xmlns:xlink="http://www.w3.org/1999/xlink" x="0px" y="0px"
	 viewBox="0 0 64 50.2" style="enable-background:new 0 0 64 50.2;" xml:space="preserve">
<style type="text/css">
	.st0{fill:#808080;}
</style>
<g id="a">
</g>
<g id="b">
	<g id="c">
		<path class="st0" d="M0.3,49.3C11.5,45.7,21.6,39,30.1,31C36,25.1,42.6,18,42.8,9.4c0-2.7-1.4-5.1-3.8-6.3
			C34.1,0.7,27.5,2.6,24,6.8c-2,2.5-3.6,6.4-1.9,9.4c4.1,5.2,17.1,2.7,22.5,0.4c5.4-2.3,10.1-6,14.4-10c0.2-0.2,0.7-0.2,0.9,0
			c1.6,9.4-6.6,20.3-15.1,23.6l-0.5-2.1c1.5-0.2,3.4,0.3,4.4,1.6c2.7,3.9,0,8.8-2.6,11.8c-3.7,4.1-8.9,6.3-14.1,7
			c-7.7,1.1-17.6-0.1-21.6-7.8c-3-6,1-12.9,7.9-12c3.6,0.5,6.5,2.5,8.9,5c9.5,10,14.4,17.7,29.6,12.7c2.3-0.8,4.5-2,6.7-3.3
			c0.2-0.1,0.4,0,0.5,0.1c0.1,0.2,0.1,0.4-0.1,0.5c-1,0.8-2,1.6-3.1,2.3c-5.5,3.5-12.6,5.2-19,3.1c-6.3-2.3-10.6-7.7-15.1-12.3
			c-0.6-0.7-1.9-2-2.6-2.6c-2.6-2.2-6-3.9-9.2-2.6c-4.4,1.9-3.5,8.1-0.3,10.8c7.4,6.6,23.2,4.8,29.8-2.4c1.6-1.7,2.8-3.9,3.1-6.1
			c0.3-2.1-0.6-3.9-3-3.7c-0.6,0.1-1.1-0.4-1.2-1c0-0.5,0.3-0.9,0.7-1.1c2.1-0.8,4-2,5.8-3.4c5.1-4.3,9.3-10.8,9-17.7
			c0,0,1.1,0.4,1,0.4c-6.6,6-14.5,11.2-23.5,12.4c-5.1,0.6-11.6,1.5-15.3-2.9c-2.3-3.5-0.6-8.2,1.6-11.2c4.7-6.2,16.1-8.5,20.9-1.2
			c3.9,7.4-1.3,15.7-5.9,21.4C30,35.1,20,42.4,9,47.3c-2.7,1.2-5.6,2.3-8.5,2.9c-0.2,0.1-0.5-0.1-0.5-0.3C0,49.6,0.1,49.4,0.3,49.3
			L0.3,49.3z"/>
	</g>
</g>
</svg>
